<svg xmlns="http://www.w3.org/2000/svg" viewBox="0 0 800 520" role="img" aria-label="Placeholder: werkplaatsfoto">
  <defs>
    <linearGradient id="bg" x1="0" y1="0" x2="0" y2="1">
      <stop offset="0" stop-color="#f0f1f4"/>
      <stop offset="1" stop-color="#dfe2e8"/>
    </linearGradient>
  </defs>
  <rect width="800" height="520" fill="url(#bg)"/>
  <rect y="380" width="800" height="140" fill="#c9cdd6"/>
  <!-- camper achter -->
  <g opacity="0.85">
    <rect x="470" y="150" width="270" height="160" rx="18" fill="#ffffff" stroke="#b6bbc6" stroke-width="4"/>
    <rect x="492" y="176" width="70" height="52" rx="8" fill="#dfe2e8"/>
    <rect x="580" y="176" width="70" height="52" rx="8" fill="#dfe2e8"/>
    <circle cx="530" cy="318" r="26" fill="#4a4f58"/>
    <circle cx="530" cy="318" r="11" fill="#c9cdd6"/>
    <circle cx="682" cy="318" r="26" fill="#4a4f58"/>
    <circle cx="682" cy="318" r="11" fill="#c9cdd6"/>
  </g>
  <!-- auto voor -->
  <g>
    <path d="M110 350c0-14 10-24 24-24h30l38-52c8-11 21-18 35-18h132c14 0 27 7 35 18l38 52h44c14 0 24 10 24 24v34c0 8-6 14-14 14H124c-8 0-14-6-14-14v-34z" fill="#17181c"/>
    <path d="M216 276c5-7 13-12 21-12h124c8 0 16 5 21 12l26 36H190l26-36z" fill="#3a3d45"/>
    <circle cx="205" cy="398" r="34" fill="#17181c"/>
    <circle cx="205" cy="398" r="15" fill="#8a8f99"/>
    <circle cx="475" cy="398" r="34" fill="#17181c"/>
    <circle cx="475" cy="398" r="15" fill="#8a8f99"/>
    <rect x="118" y="340" width="46" height="12" rx="6" fill="#f5821f"/>
  </g>
  <text x="400" y="480" text-anchor="middle" font-family="Arial, sans-serif" font-size="20" font-weight="bold" fill="#8a8f99">Vervang deze placeholder door een echte werkplaatsfoto</text>
</svg>
