<svg xmlns="http://www.w3.org/2000/svg" viewBox="0 0 600 390" role="img" aria-label="Placeholder: voor het herstel">
  <rect width="600" height="390" fill="#dfe2e8"/>
  <rect y="300" width="600" height="90" fill="#c9cdd6"/>
  <g>
    <path d="M80 250c0-12 9-21 21-21h26l32-44c7-10 18-16 30-16h112c12 0 23 6 30 16l32 44h38c12 0 21 9 21 21v28c0 7-5 12-12 12H92c-7 0-12-5-12-12v-28z" fill="#2c2e35"/>
    <circle cx="165" cy="292" r="28" fill="#17181c"/>
    <circle cx="165" cy="292" r="12" fill="#8a8f99"/>
    <circle cx="395" cy="292" r="28" fill="#17181c"/>
    <circle cx="395" cy="292" r="12" fill="#8a8f99"/>
    <!-- deuk/schade -->
    <path d="M330 236l22-16 14 12-18 10 20 8-26 12-12-14 8-8-8-4z" fill="#8a8f99"/>
    <path d="M320 232l40-28M336 250l34-18" stroke="#6b7077" stroke-width="3" stroke-linecap="round"/>
  </g>
  <text x="300" y="360" text-anchor="middle" font-family="Arial, sans-serif" font-size="17" font-weight="bold" fill="#8a8f99">Placeholder: foto vóór het herstel</text>
</svg>
